<svg xmlns="http://www.w3.org/2000/svg" x="0px" y="0px" width="100" height="100" viewBox="0 0 64 64">
<linearGradient id="G4XlvDna3C5lTY6dqm4dta_cI2UoEUwDz70_gr1" x1="32" x2="32" y1="5.873" y2="57.002" gradientUnits="userSpaceOnUse"><stop offset="0" stop-color="#1a6dff"></stop><stop offset="1" stop-color="#c822ff"></stop></linearGradient><path fill="url(#G4XlvDna3C5lTY6dqm4dta_cI2UoEUwDz70_gr1)" d="M27.548,57.002c-10.234,0-20.038-5.854-24.562-15.754C-2.048,30.23,2.82,17.171,13.837,12.137	l12.714-5.809c1.214-0.555,2.57-0.604,3.82-0.137c1.25,0.466,2.244,1.391,2.798,2.604c1.145,2.505,0.037,5.474-2.468,6.618	l-12.713,5.81c-2.906,1.327-5.122,3.711-6.241,6.714c-1.119,3.002-1.004,6.255,0.323,9.161c1.881,4.116,5.259,7.256,9.513,8.842	c4.252,1.585,8.862,1.423,12.978-0.458l14.077-6.432c1.815-0.83,3.201-2.32,3.9-4.196c0.699-1.876,0.627-3.909-0.202-5.725	c-1.944-4.254-6.986-6.135-11.244-4.191l-12.714,5.81c-0.751,0.343-1.082,1.232-0.739,1.983c0.343,0.75,1.23,1.084,1.982,0.739	l10.443-4.772c1.213-0.554,2.569-0.604,3.82-0.137c1.25,0.466,2.243,1.391,2.798,2.604c0.554,1.213,0.603,2.569,0.137,3.819	s-1.391,2.244-2.604,2.798l-10.443,4.772c-5.76,2.629-12.587,0.086-15.218-5.673c-2.632-5.759-0.088-12.586,5.671-15.218	l12.715-5.81c4.48-2.048,9.499-2.226,14.127-0.5c4.629,1.725,8.306,5.144,10.353,9.625l0,0c4.005,8.764,0.133,19.152-8.631,23.157	l-14.076,6.432C35.092,56.219,31.291,57.001,27.548,57.002z M28.625,7.875c-0.424,0-0.846,0.091-1.242,0.272l-12.714,5.809	C4.654,18.532,0.229,30.402,4.805,40.417c5.721,12.518,20.56,18.051,33.076,12.329l14.076-6.432	c7.761-3.546,11.19-12.746,7.645-20.506l0,0c-1.826-3.995-5.104-7.043-9.232-8.582c-4.128-1.54-8.603-1.381-12.597,0.445	l-12.715,5.81c-4.756,2.173-6.857,7.811-4.685,12.567c2.175,4.757,7.812,6.858,12.568,4.685l10.442-4.772	c0.728-0.333,1.282-0.928,1.562-1.678c0.279-0.749,0.25-1.562-0.082-2.29c-0.332-0.728-0.928-1.282-1.678-1.561	c-0.748-0.28-1.562-0.25-2.289,0.082l-10.444,4.772c-1.758,0.801-3.832,0.025-4.633-1.728c-0.801-1.754-0.026-3.832,1.728-4.633	l12.713-5.81c5.261-2.403,11.493-0.079,13.895,5.18c1.052,2.301,1.144,4.878,0.258,7.255s-2.642,4.265-4.942,5.317l-14.077,6.432	c-4.603,2.102-9.755,2.285-14.509,0.513s-8.529-5.282-10.632-9.885c-1.55-3.392-1.685-7.188-0.379-10.691s3.893-6.285,7.283-7.834	l12.714-5.81c1.502-0.686,2.166-2.465,1.48-3.967c-0.333-0.727-0.929-1.282-1.678-1.561C29.332,7.938,28.979,7.875,28.625,7.875z"></path><linearGradient id="G4XlvDna3C5lTY6dqm4dtb_cI2UoEUwDz70_gr2" x1="32" x2="32" y1="9.875" y2="53.002" gradientUnits="userSpaceOnUse"><stop offset="0" stop-color="#6dc7ff"></stop><stop offset="1" stop-color="#e6abff"></stop></linearGradient><path fill="url(#G4XlvDna3C5lTY6dqm4dtb_cI2UoEUwDz70_gr2)" d="M28.624,9.875c0.296,0,0.711,0.152,0.907,0.582c0.228,0.498,0.008,1.089-0.491,1.317	l-12.714,5.809c-3.877,1.772-6.834,4.952-8.327,8.955c-1.492,4.003-1.338,8.343,0.433,12.221c3.402,7.445,10.9,12.256,19.102,12.256	c3.012,0,5.935-0.638,8.689-1.896L50.3,42.686c2.787-1.274,4.913-3.56,5.986-6.437c1.073-2.878,0.962-5.997-0.312-8.785	c-2.025-4.432-6.488-7.296-11.37-7.296c-1.794,0-3.535,0.38-5.175,1.129l-12.714,5.809c-2.756,1.26-3.974,4.527-2.715,7.283	c0.892,1.951,2.855,3.212,5.003,3.212c0.791,0,1.559-0.167,2.281-0.497l10.444-4.772c0.132-0.06,0.27-0.091,0.41-0.091	c0.296,0,0.71,0.152,0.907,0.582c0.149,0.326,0.081,0.616,0.027,0.76c-0.054,0.144-0.192,0.408-0.518,0.557l-10.444,4.772	c-0.982,0.449-2.024,0.677-3.095,0.677c-2.931,0-5.609-1.717-6.823-4.373c-1.715-3.753-0.057-8.202,3.697-9.917l12.714-5.809	c1.9-0.868,3.915-1.308,5.989-1.308c5.665,0,10.843,3.32,13.19,8.457c3.088,6.758,0.102,14.768-6.656,17.856L37.05,50.926	c-3.014,1.377-6.212,2.076-9.504,2.076c-8.985,0-17.198-5.266-20.922-13.417c-4.117-9.011-0.136-19.692,8.875-23.81l12.714-5.809	C28.346,9.906,28.484,9.875,28.624,9.875L28.624,9.875"></path>
</svg>
